<svg xmlns="http://www.w3.org/2000/svg" viewBox="0 0 256 256" fill="none">
  <defs>
    <linearGradient id="cargooGradient" x1="28" y1="28" x2="222" y2="222" gradientUnits="userSpaceOnUse">
      <stop stop-color="#FF9A6F" />
      <stop offset="0.45" stop-color="#FFB35F" />
      <stop offset="1" stop-color="#63CBB4" />
    </linearGradient>
  </defs>
  <rect x="16" y="16" width="224" height="224" rx="60" fill="url(#cargooGradient)" />
  <path
    d="M67 144h122c7 0 13 6 13 13v7c0 7-6 13-13 13h-8c0-14-11-25-25-25s-25 11-25 25h-30c0-14-11-25-25-25s-25 11-25 25h-9c-7 0-13-6-13-13v-11c0-11 7-21 17-25l15-6 18-32c5-9 15-14 25-14h43c10 0 20 5 25 14l14 24"
    fill="white"
  />
  <circle cx="77" cy="177" r="16" fill="#1E2A39" />
  <circle cx="155" cy="177" r="16" fill="#1E2A39" />
  <path d="M92 112h58c5 0 9 2 11 6l7 12H82l10-14Z" fill="#1E2A39" opacity="0.16" />
</svg>
