<svg xmlns="http://www.w3.org/2000/svg" width="1200" height="630" viewBox="0 0 1200 630" fill="none">
  <defs>
    <linearGradient id="bg" x1="80" y1="60" x2="1080" y2="570" gradientUnits="userSpaceOnUse">
      <stop stop-color="#FF9A6F"/>
      <stop offset="0.45" stop-color="#FFB35F"/>
      <stop offset="1" stop-color="#63CBB4"/>
    </linearGradient>
  </defs>
  <rect width="1200" height="630" rx="32" fill="#FFF6EF"/>
  <rect x="70" y="70" width="1060" height="490" rx="48" fill="url(#bg)"/>
  <rect x="118" y="118" width="964" height="394" rx="36" fill="rgba(255,255,255,0.16)"/>
  <path d="M425 214c-58-44-127-66-204-66-176 0-315 133-315 303s139 303 315 303c79 0 155-29 214-83" transform="translate(165 -70) scale(0.78)" stroke="white" stroke-width="42" stroke-linecap="round" stroke-linejoin="round"/>
  <rect x="597" y="225" width="122" height="122" rx="28" fill="white"/>
  <path d="M658 225v122" stroke="#FF9A6F" stroke-width="18" stroke-linecap="round"/>
  <path d="M597 286h122" stroke="#FFB35F" stroke-width="18" stroke-linecap="round"/>
  <text x="170" y="430" fill="white" font-family="Segoe UI, Arial, sans-serif" font-size="84" font-weight="700">Cargoo</text>
  <text x="170" y="486" fill="rgba(255,255,255,0.9)" font-family="Segoe UI, Arial, sans-serif" font-size="30">
    Envios colaborativos entre personas y paises
  </text>
 </svg>
